<?xml version="1.0" standalone="no"?><!DOCTYPE svg PUBLIC "-//W3C//DTD SVG 1.1//EN" "http://www.w3.org/Graphics/SVG/1.1/DTD/svg11.dtd"><svg t="1739283300867" class="icon" viewBox="0 0 1024 1024" version="1.1" xmlns="http://www.w3.org/2000/svg" p-id="4261" xmlns:xlink="http://www.w3.org/1999/xlink" width="200" height="200"><path d="M16 192h992.001v704h-992z" fill="#FDBF5E" p-id="4262"></path><path d="M1008 913.6H16c-9.6 0-16-6.4-16-16V192c0-9.6 6.4-16 16-16h992.001c9.601 0 16.001 6.4 16.001 16v704c-0.002 9.6-6.402 17.6-16.003 17.6zM32 881.6h960v-673.6H32v673.6z" fill="#193651" p-id="4263"></path><path d="M584 126.4c-40 0-71.999 48-71.999 88v681.601c0-40 32-88 72-88H931.2V126.4H584z" fill="#FFFFFF" p-id="4264"></path><path d="M511.999 913.6c-9.601 0-16-6.4-16-16V216c0-48.001 38.399-104 88-104h347.199c9.6 0 16 6.4 16 16v681.601c0 9.601-6.4 16.001-16 16.001H584c-30.4 0-56.001 40-56.001 72 0 7.998-6.4 15.999-16.001 15.999z m72.002-771.2c-30.4 0-56.001 40-56.001 71.999v604.799C542.4 803.199 563.2 792 584 792h331.201V142.4h-331.2z" fill="#193651" p-id="4265"></path><path d="M576 200c0-4.799 3.201-8 8-8h283.2v553.6H576V200z" fill="#E1E6E9" p-id="4266"></path><path d="M440 126.4c40 0 71.999 48 71.999 88v681.601c0-40-32-88-72-88H92.8V126.4H440z" fill="#FFFFFF" p-id="4267"></path><path d="M511.999 913.6c-9.601 0-16-6.4-16-16 0-32-27.201-72-56.002-72H92.8c-9.6 0-16-6.4-16-16V126.4c0-9.6 6.4-16 16-16H440c49.598 0 88 56 88 103.999v681.6c0 9.601-6.4 17.602-16.001 17.602zM108.801 792h331.2c20.8 0 41.6 11.2 56.001 27.2V216c0-32-27.2-72-56-72H108.8v648z" fill="#193651" p-id="4268"></path><path d="M448 745.6H156.8V190.4H440c4.799 0 8 3.2 8 8v547.2z" fill="#E1E6E9" p-id="4269"></path><path d="M448 377.6V200c0-4.799-3.201-8-8-8H156.8v185.6H448z" fill="#2EA2DB" p-id="4270"></path><path d="M270.4 241.6v84.8l65.6-41.6z" fill="#FFFFFF" p-id="4271"></path><path d="M209.6 633.6h32v32h-32z m76.8 0h32v32h-32z m78.4 0h32v32h-32z m262.4-374.4h188.799v32h-188.8z m0 92.8h188.799v32h-188.8z m0 94.4h188.799v31.999h-188.8z m0 92.8h188.799v31.999h-188.8z m0 94.4h188.799v32h-188.8zM207.999 446.4h188.8v31.999h-188.8z m0 92.8h188.8v31.999h-188.8z" fill="#193651" p-id="4272"></path></svg>