<?xml version="1.0" standalone="no"?><!DOCTYPE svg PUBLIC "-//W3C//DTD SVG 1.1//EN" "http://www.w3.org/Graphics/SVG/1.1/DTD/svg11.dtd"><svg t="1750830245392" class="icon" viewBox="0 0 1024 1024" version="1.1" xmlns="http://www.w3.org/2000/svg" p-id="17793" xmlns:xlink="http://www.w3.org/1999/xlink" width="256" height="256"><path d="M623.104 76.8v159.232c0 30.72 25.088 55.808 55.808 55.808h169.472l-225.28-215.04z" fill="#297AFF" p-id="17794"></path><path d="M848.384 317.44h-189.952c-34.304 0-62.464-28.16-62.464-62.464V76.8h-358.4c-34.304 0-62.464 28.16-62.464 62.464v745.472c0 34.304 28.16 62.464 62.464 62.464h548.864c34.304 0 62.464-28.16 62.464-62.464L848.384 317.44z m-578.56 101.376h271.872c18.432 0 33.792 15.36 33.792 33.792s-15.36 33.792-33.792 33.792H269.824c-18.432 0-33.792-15.36-33.792-33.792s15.36-33.792 33.792-33.792z m422.4 382.464H269.824c-18.432 0-33.792-15.36-33.792-33.792 0-18.432 15.36-33.792 33.792-33.792h422.4c18.432 0 33.792 15.36 33.792 33.792 0 18.944-14.848 33.792-33.792 33.792z m16.384-157.184H269.824c-18.432 0-33.792-15.36-33.792-33.792s15.36-33.792 33.792-33.792h438.784c18.432 0 33.792 15.36 33.792 33.792s-14.848 33.792-33.792 33.792z" fill="#297AFF" p-id="17795"></path></svg>