<?xml version="1.0" standalone="no"?><!DOCTYPE svg PUBLIC "-//W3C//DTD SVG 1.1//EN" "http://www.w3.org/Graphics/SVG/1.1/DTD/svg11.dtd"><svg t="1750839900379" class="icon" viewBox="0 0 1024 1024" version="1.1" xmlns="http://www.w3.org/2000/svg" p-id="8884" xmlns:xlink="http://www.w3.org/1999/xlink" width="256" height="256"><path d="M830.5664 410.0096H326.3488c-43.1104 0-80.9984 28.3648-93.184 69.7344l-71.4752 242.8928c-2.6624 8.9088-3.9936 18.1248-3.9936 27.4432 0 27.9552 11.8784 53.248 30.8224 70.9632-44.4416-8.9088-77.824-48.2304-77.824-95.232 0-9.4208 1.3312-18.7392 3.9936-27.7504l78.7456-264.4992c12.288-41.1648 50.176-69.4272 93.0816-69.4272h548.864c-6.7584-47.0016-47.2064-83.2512-96.1536-83.2512H498.4832s-28.0576-33.4848-84.1728-100.352H205.7216c-53.6576 0-97.1776 43.52-97.1776 97.1776v448c0 47.9232 34.7136 87.7568 80.384 95.744 17.3056 15.9744 40.448 25.7024 65.8432 25.7024h491.008c41.3696 0 78.1312-26.112 91.7504-65.1264l84.7872-242.8928c3.584-10.24 5.4272-21.0944 5.4272-32.0512 0-53.5552-43.52-97.0752-97.1776-97.0752z" fill="#F2B224" p-id="8885"></path></svg>