<?xml version="1.0" standalone="no"?><!DOCTYPE svg PUBLIC "-//W3C//DTD SVG 1.1//EN" "http://www.w3.org/Graphics/SVG/1.1/DTD/svg11.dtd"><svg t="1750828079285" class="icon" viewBox="0 0 1024 1024" version="1.1" xmlns="http://www.w3.org/2000/svg" p-id="5188" xmlns:xlink="http://www.w3.org/1999/xlink" width="256" height="256"><path d="M848.8576 199.1936H415.7568c0-26.5728-21.5424-48.128-48.128-48.128H175.1424c-26.5728 0-48.128 21.5424-48.128 48.128V343.5648c0 26.5984 21.5424 48.1408 48.128 48.1408h673.728c26.5728 0 48.128-21.5424 48.128-48.1408v-96.2432c-0.0128-26.5856-21.5552-48.128-48.1408-48.128z" fill="#CCA352" p-id="5189"></path><path d="M800.7424 247.3088H223.2576c-26.5728 0-48.128 21.5424-48.128 48.128v48.128c0 26.5984 21.5424 48.1408 48.128 48.1408h577.472c26.5728 0 48.128-21.5424 48.128-48.1408v-48.128c0-26.5728-21.5424-48.128-48.1152-48.128z" fill="#FFFFFF" p-id="5190"></path><path d="M848.8576 295.4368H175.1424c-26.5728 0-48.128 21.5424-48.128 48.128v481.2544c0 26.5472 21.5424 48.128 48.128 48.128h673.728c26.5728 0 48.128-21.568 48.128-48.128V343.552c-0.0128-26.5728-21.5552-48.1152-48.1408-48.1152z" fill="#FFCC66" p-id="5191"></path></svg>