<?xml version="1.0" standalone="no"?><!DOCTYPE svg PUBLIC "-//W3C//DTD SVG 1.1//EN" "http://www.w3.org/Graphics/SVG/1.1/DTD/svg11.dtd"><svg t="1753619217997" class="icon" viewBox="0 0 1024 1024" version="1.1" xmlns="http://www.w3.org/2000/svg" p-id="1624" xmlns:xlink="http://www.w3.org/1999/xlink" width="200" height="200"><path d="M988.69 344.276H723.862l-194.206 105.932H105.932l-77.178 30.87a17.66 17.66 0 0 0-11.098 16.392v199.91h988.69V361.932a17.656 17.656 0 0 0-17.656-17.656z" fill="#E6C8A0" p-id="1625"></path><path d="M529.978 485.518H102.31l-84.654 36.28v38.414l91.898-39.384h419.076a88.272 88.272 0 0 0 42.27-10.778l174.446-95.152h260.998v-35.31H737.69l-182.35 99.464a52.98 52.98 0 0 1-25.362 6.466z" fill="#D2B48C" p-id="1626"></path><path d="M105.932 397.242h211.862v282.482H105.932z" fill="#FFE1B3" p-id="1627"></path><path d="M105.932 397.242h211.862v52.966H105.932zM105.932 538.482h211.862v52.966H105.932z" fill="#E6C8A0" p-id="1628"></path><path d="M317.794 414.896H105.932a17.658 17.658 0 0 1-17.656-17.656v-17.656a17.658 17.658 0 0 1 17.656-17.656h211.862a17.658 17.658 0 0 1 17.656 17.656v17.656a17.658 17.658 0 0 1-17.656 17.656zM317.794 556.138H105.932a17.658 17.658 0 0 1 0-35.312h211.862a17.656 17.656 0 0 1 0 35.312z" fill="#FFEBBE" p-id="1629"></path><path d="M211.862 503.172a17.646 17.646 0 0 1-17.656-17.656v-17.656a17.646 17.646 0 0 1 17.656-17.656 17.646 17.646 0 0 1 17.656 17.656v17.656a17.646 17.646 0 0 1-17.656 17.656zM264.828 503.172a17.646 17.646 0 0 1-17.656-17.656v-17.656a17.646 17.646 0 0 1 17.656-17.656 17.646 17.646 0 0 1 17.656 17.656v17.656a17.648 17.648 0 0 1-17.656 17.656zM158.896 503.172a17.646 17.646 0 0 1-17.656-17.656v-17.656a17.646 17.646 0 0 1 17.656-17.656 17.646 17.646 0 0 1 17.656 17.656v17.656a17.644 17.644 0 0 1-17.656 17.656z" fill="#E6C8A0" p-id="1630"></path><path d="M723.862 291.31h211.862v282.482H723.862z" fill="#FFE1B3" p-id="1631"></path><path d="M723.862 291.31h211.862v52.966H723.862zM723.862 432.552h211.862v52.966H723.862z" fill="#E6C8A0" p-id="1632"></path><path d="M935.724 308.966H723.862a17.658 17.658 0 0 1-17.656-17.656v-17.656a17.658 17.658 0 0 1 17.656-17.656h211.862a17.658 17.658 0 0 1 17.656 17.656v17.656a17.656 17.656 0 0 1-17.656 17.656z" fill="#FFEBBE" p-id="1633"></path><path d="M829.794 397.242a17.646 17.646 0 0 1-17.656-17.656v-17.656a17.646 17.646 0 0 1 17.656-17.656 17.646 17.646 0 0 1 17.656 17.656v17.656a17.648 17.648 0 0 1-17.656 17.656zM882.758 397.242a17.646 17.646 0 0 1-17.656-17.656v-17.656a17.646 17.646 0 0 1 17.656-17.656 17.646 17.646 0 0 1 17.656 17.656v17.656a17.644 17.644 0 0 1-17.656 17.656zM776.828 397.242a17.646 17.646 0 0 1-17.656-17.656v-17.656c0-9.758 7.896-17.656 17.656-17.656s17.656 7.896 17.656 17.656v17.656a17.648 17.648 0 0 1-17.656 17.656z" fill="#E6C8A0" p-id="1634"></path><path d="M935.724 450.206H723.862a17.658 17.658 0 0 1 0-35.312h211.862a17.658 17.658 0 0 1 17.656 17.656 17.654 17.654 0 0 1-17.656 17.656z" fill="#FFEBBE" p-id="1635"></path><path d="M1006.344 467.862h-123.586l-317.792 105.932H317.794L17.656 679.724v52.966h988.688z" fill="#8CE16E" p-id="1636"></path><path d="M406.068 732.69h70.622l-103.846-158.896h-39.482z" fill="#9BF57D" p-id="1637"></path><path d="M1006.344 732.69H980.94a17.652 17.652 0 0 1-17.128-13.374l-62.862-251.454h-18.192l-16.79 5.596 18.548 74.232-146.07 178.524a17.652 17.652 0 0 1-13.666 6.474h-98.286a17.656 17.656 0 0 1-16.852-12.39l-45.782-146.506h-34.206v141.242a17.658 17.658 0 0 1-17.656 17.656h-167.182a17.652 17.652 0 0 1-17.128-13.374l-34.234-136.934-189.096 66.738-23.832 71.496a17.654 17.654 0 0 1-16.748 12.072H17.656A17.646 17.646 0 0 0 0 750.344 17.644 17.644 0 0 0 17.656 768h988.69a17.646 17.646 0 0 0 17.656-17.656 17.648 17.648 0 0 0-17.658-17.654z" fill="#7DC86E" p-id="1638"></path><path d="M900.95 467.862h34.774l70.62 176.552v88.276H980.94a17.652 17.652 0 0 1-17.128-13.374l-62.862-251.454z" fill="#9BF57D" p-id="1639"></path></svg>