<?xml version="1.0" standalone="no"?><!DOCTYPE svg PUBLIC "-//W3C//DTD SVG 1.1//EN" "http://www.w3.org/Graphics/SVG/1.1/DTD/svg11.dtd"><svg t="1736295624931" class="icon" viewBox="0 0 1024 1024" version="1.1" xmlns="http://www.w3.org/2000/svg" p-id="8080" xmlns:xlink="http://www.w3.org/1999/xlink" width="200" height="200"><path d="M819.32913 786.401009L799.959647 769.614124c9.039092-10.330391 16.786885-20.660782 24.534678-30.991173l20.660782 15.495586c-7.747793 10.330391-16.786885 21.952081-25.825977 32.282472zM864.52459 725.709962l-21.952081-12.912988c7.747793-11.62169 14.204288-24.534678 19.369483-37.447668l23.24338 10.330391c-6.456494 14.204288-12.912989 27.117276-20.660782 40.030265zM896.807062 658.562421l-24.534679-9.039092c5.165195-11.62169 9.039092-24.534678 12.912989-37.447667l24.534678 6.456494c-3.873897 12.912989-7.747793 27.117276-12.912988 40.030265zM916.176545 591.41488l-25.825978-5.165195c24.534678-121.382093-6.456494-244.055485-86.517023-338.320303l19.369482-16.786885c86.517024 100.721311 120.090794 232.433796 92.973519 360.272383zM208.544767 262.13367L187.883985 245.346784c10.330391-12.912989 21.952081-27.117276 33.57377-38.738966l18.078184 18.078185c-10.330391 11.62169-20.660782 24.534678-30.991172 37.447667zM168.514502 324.116015l-23.24338-11.62169c6.456494-14.204288 15.495586-27.117276 23.24338-40.030264l21.952081 14.204287c-7.747793 11.62169-15.495586 24.534678-21.952081 37.447667zM142.688525 386.098361l-24.534679-7.747794c3.873897-12.912989 9.039092-27.117276 14.204288-40.030264l24.534678 10.330391c-5.165195 12.912989-10.330391 25.825977-14.204287 37.447667zM187.883985 765.740227c-80.06053-102.01261-107.177806-233.725095-76.186633-360.272383l24.534678 6.456494c-29.699874 118.799496-2.582598 241.472888 71.021438 337.029004l-19.369483 16.786885z" fill="#BCC0C4" p-id="8081"></path><path d="M505.543506 517.810845m-303.455234 0a303.455233 303.455233 0 1 0 606.910467 0 303.455233 303.455233 0 1 0-606.910467 0Z" fill="#E9EAEB" p-id="8082"></path><path d="M820.620429 690.844893l-21.952081-12.912989c59.399748-100.721311 59.399748-225.977301 2.582598-326.698613l21.95208-12.912988c61.982346 108.469105 60.691047 244.055485-2.582597 352.52459zM194.340479 659.85372c-41.321564-90.390921-42.612863-194.986129-3.873896-286.668348l23.243379 10.330391c-36.156368 85.225725-34.865069 182.07314 3.873897 266.007566l-23.24338 10.330391z" fill="#BCC0C4" p-id="8083"></path><path d="M279.566204 329.281211v480.363177c0 14.204288 11.62169 25.825977 25.825978 25.825978h413.215636c14.204288 0 25.825977-11.62169 25.825978-25.825978v-593.997478c0-14.204288-11.62169-25.825977-25.825978-25.825977H419.026482c-6.456494 0-12.912989 2.582598-18.078184 7.747793l-113.634301 113.6343c-5.165195 3.873897-7.747793 10.330391-7.747793 18.078185z" fill="#A3D4FF" p-id="8084"></path><path d="M718.607818 847.092055h-413.215636c-21.952081 0-38.738966-16.786885-38.738966-38.738965V329.281211c0-10.330391 3.873897-20.660782 11.621689-27.117277l113.634301-113.6343c7.747793-7.747793 16.786885-11.62169 27.117276-11.621689h299.581336c21.952081 0 38.738966 16.786885 38.738966 38.738965v593.997478c0 20.660782-16.786885 37.447667-38.738966 37.447667z m-299.581336-645.649432c-3.873897 0-6.456494 1.291299-9.039092 3.873897L296.35309 320.242119c-2.582598 2.582598-3.873897 5.165195-3.873897 9.039092v480.363177c0 7.747793 5.165195 12.912989 12.912989 12.912989h413.215636c7.747793 0 12.912989-5.165195 12.912989-12.912989v-593.997478c0-7.747793-5.165195-12.912989-12.912989-12.912988H419.026482z" fill="#2A5082" p-id="8085"></path><path d="M628.216898 730.875158h-232.433796c-14.204288 0-25.825977-11.62169-25.825977-25.825978v-335.737705c0-14.204288 11.62169-25.825977 25.825977-25.825977h232.433796c14.204288 0 25.825977 11.62169 25.825977 25.825977v335.737705c0 14.204288-11.62169 25.825977-25.825977 25.825978z" fill="#FFFFFF" p-id="8086"></path><path d="M628.216898 743.788146h-232.433796c-21.952081 0-38.738966-16.786885-38.738966-38.738966v-335.737705c0-21.952081 16.786885-38.738966 38.738966-38.738966h232.433796c21.952081 0 38.738966 16.786885 38.738966 38.738966v335.737705c0 21.952081-16.786885 38.738966-38.738966 38.738966z m-232.433796-387.389659c-7.747793 0-12.912989 5.165195-12.912989 12.912988v335.737705c0 7.747793 5.165195 12.912989 12.912989 12.912989h232.433796c7.747793 0 12.912989-5.165195 12.912989-12.912989v-335.737705c0-7.747793-5.165195-12.912989-12.912989-12.912988h-232.433796z" fill="#2A5082" p-id="8087"></path><path d="M447.435057 343.485498h25.825977v129.129887h-25.825977zM537.825977 343.485498h25.825978v129.129887h-25.825978zM537.825977 601.745271h25.825978v129.129887h-25.825978z" fill="#2A5082" p-id="8088"></path><path d="M369.957125 459.702396h284.08575v25.825977h-284.08575zM473.261034 730.875158h-25.825977v-142.042876h206.607818v25.825978h-180.781841z" fill="#2A5082" p-id="8089"></path></svg>