<?xml version="1.0" standalone="no"?><!DOCTYPE svg PUBLIC "-//W3C//DTD SVG 1.1//EN" "http://www.w3.org/Graphics/SVG/1.1/DTD/svg11.dtd"><svg t="1741617299940" class="icon" viewBox="0 0 1024 1024" version="1.1" xmlns="http://www.w3.org/2000/svg" p-id="9531" width="256" height="256" xmlns:xlink="http://www.w3.org/1999/xlink"><path d="M275.3536 334.518044v581.586489l83.740444-50.926933 83.740445 50.926933 83.740444-50.926933 83.729067 50.926933 83.751822-50.926933 83.729067 50.926933 83.729067-50.926933 83.751822 50.926933V202.683733c0-47.320178-38.286222-85.686044-85.538134-85.686044H189.838222" fill="#E6E6E6" p-id="9532"></path><path d="M104.311467 549.137067h171.042133v-354.076445c0-43.1104-34.872889-78.051556-77.903644-78.051555h-15.246223c-43.019378 0-77.903644 34.941156-77.903644 78.051555v354.076445h0.011378z" fill="#CCCCCC" p-id="9533"></path><path d="M382.327467 266.023822h185.252977v250.538667H382.327467z" fill="#47A7DD" p-id="9534"></path><path d="M642.093511 579.185778H856.291556v125.257955H642.093511z" fill="#FFCA6C" p-id="9535"></path><path d="M945.288533 635.8016a15.587556 15.587556 0 0 0 15.5648-15.598933V202.683733c0-55.853511-45.340444-101.284978-101.080177-101.284977H189.838222c-55.739733 0-101.091556 45.442844-101.091555 101.284977v248.570311a15.587556 15.587556 0 0 0 15.5648 15.598934 15.587556 15.587556 0 0 0 15.5648-15.598934V202.683733c0-38.650311 31.379911-70.087111 69.950577-70.087111s69.950578 31.448178 69.950578 70.087111V533.526756H119.887644v-25.201778a15.587556 15.587556 0 0 0-15.5648-15.598934A15.610311 15.610311 0 0 0 88.746667 508.336356v40.800711a15.587556 15.587556 0 0 0 15.5648 15.598933h155.477333v351.368533a15.587556 15.587556 0 0 0 23.643022 13.334756l75.662222-46.011733 75.662223 46.011733c4.960711 3.015111 11.184356 3.015111 16.156444 0l75.662222-46.011733 75.662223 46.011733c4.960711 3.015111 11.184356 3.015111 16.156444 0l75.662222-46.011733 75.662222 46.011733c4.960711 3.015111 11.172978 3.015111 16.156445 0l75.662222-46.011733 75.650845 46.011733a15.496533 15.496533 0 0 0 15.724088 0.250311 15.587556 15.587556 0 0 0 7.918934-13.585067v-238.819555c0-8.612978-6.9632-15.598933-15.5648-15.598934s-15.5648 6.985956-15.5648 15.598934v211.114666L869.603556 851.854222a15.507911 15.507911 0 0 0-16.156445 0l-75.650844 46.011734-75.662223-46.011734a15.507911 15.507911 0 0 0-16.156444 0l-75.662222 46.011734-75.650845-46.011734a15.507911 15.507911 0 0 0-16.156444 0l-75.6736 46.011734-75.662222-46.011734a15.485156 15.485156 0 0 0-16.145067 0l-60.097422 36.545422V202.683733c0-27.181511-10.763378-51.882667-28.216889-70.087111h597.071644c38.570667 0 69.9392 31.448178 69.9392 70.087111V620.202667a15.587556 15.587556 0 0 0 15.5648 15.598933z" fill="" p-id="9536"></path><path d="M583.133867 266.023822a15.587556 15.587556 0 0 0-15.576178-15.598933H382.316089a15.587556 15.587556 0 0 0-15.5648 15.598933V516.551111a15.587556 15.587556 0 0 0 15.5648 15.610311h185.2416a15.587556 15.587556 0 0 0 15.576178-15.610311V266.023822z m-31.1296 234.928356H397.880889V281.611378h154.112v219.3408zM856.291556 563.586844H642.093511a15.587556 15.587556 0 0 0-15.576178 15.587556v125.269333a15.587556 15.587556 0 0 0 15.576178 15.598934h214.186667c8.6016 0 15.5648-6.974578 15.5648-15.598934v-125.269333c0-8.6016-6.9632-15.587556-15.553422-15.587556z m-15.576178 125.257956H657.658311v-94.071467h183.057067v94.071467zM856.291556 250.424889H642.093511a15.587556 15.587556 0 0 0 0 31.197867h214.186667a15.587556 15.587556 0 0 0 15.5648-15.598934 15.587556 15.587556 0 0 0-15.553422-15.598933zM856.291556 500.952178H642.093511a15.598933 15.598933 0 1 0 0 31.209244h214.186667a15.587556 15.587556 0 0 0 15.5648-15.610311 15.587556 15.587556 0 0 0-15.553422-15.598933zM856.291556 438.317511h-79.758223a15.587556 15.587556 0 0 0 0 31.197867h79.758223c8.6016 0 15.553422-6.985956 15.553422-15.598934a15.587556 15.587556 0 0 0-15.553422-15.598933zM642.093511 469.515378h77.471289a15.587556 15.587556 0 0 0 0-31.197867h-77.471289a15.587556 15.587556 0 0 0 0 31.197867zM856.291556 375.694222H642.093511a15.587556 15.587556 0 0 0 0 31.197867h214.186667a15.587556 15.587556 0 0 0 15.5648-15.598933c0-8.624356-6.9632-15.598933-15.553422-15.598934zM382.316089 732.376178h185.2416a15.587556 15.587556 0 0 0 0-31.186489H382.316089a15.587556 15.587556 0 0 0 0 31.186489zM567.557689 638.555022h-66.753422c-8.6016 0-15.5648 6.974578-15.5648 15.598934a15.587556 15.587556 0 0 0 15.5648 15.598933h66.753422a15.587556 15.587556 0 0 0 0-31.197867zM382.316089 669.752889h61.531022a15.587556 15.587556 0 0 0 15.5648-15.598933 15.587556 15.587556 0 0 0-15.5648-15.598934h-61.531022a15.587556 15.587556 0 0 0-15.5648 15.598934 15.576178 15.576178 0 0 0 15.5648 15.598933zM567.557689 575.920356H382.316089a15.587556 15.587556 0 0 0 0 31.186488h185.2416a15.587556 15.587556 0 0 0 0-31.186488zM856.291556 313.059556h-13.676089a15.587556 15.587556 0 0 0-15.5648 15.598933 15.587556 15.587556 0 0 0 15.5648 15.598933h13.676089c8.6016 0 15.553422-6.985956 15.553422-15.598933 0-8.624356-6.9632-15.598933-15.553422-15.598933zM642.093511 344.246044h143.553422a15.587556 15.587556 0 0 0 15.5648-15.598933 15.587556 15.587556 0 0 0-15.5648-15.598933H642.093511a15.587556 15.587556 0 0 0 0 31.197866z" fill="" p-id="9537"></path></svg>