<?xml version='1.0' encoding='utf-8'?><!-- Generator: DarwingMaster 1.1.7, SVG Export Plug-In . SVG Version: 6.00 Build 0)--><svg version="1.1" x="0" y="0" viewBox="0 0 1119.60911 699" xmlns="http://www.w3.org/2000/svg" xmlns:xlink="http://www.w3.org/1999/xlink">
  <style type="text/css">.st2{stroke:none;stroke-width:1;stroke-linecap:butt;stroke-linejoin:miter;fill:#f2f2f2;fill-opacity:1;fill-rule:nonZero;}
.st3{stroke:none;stroke-width:1;stroke-linecap:butt;stroke-linejoin:miter;fill:#2f2e41;fill-opacity:1;fill-rule:nonZero;}
.st4{stroke:none;stroke-width:1;stroke-linecap:butt;stroke-linejoin:miter;fill:#42b983;fill-opacity:1;fill-rule:nonZero;}
.st5{stroke:none;stroke-width:1;stroke-linecap:butt;stroke-linejoin:miter;fill:#42b983;fill-opacity:1;fill-rule:nonZero;}
.st6{stroke:none;stroke-width:1;stroke-linecap:butt;stroke-linejoin:miter;fill:#2f2e41;fill-opacity:1;fill-rule:nonZero;}
.st7{stroke:none;stroke-width:1;stroke-linecap:butt;stroke-linejoin:miter;fill:#a8a8a8;fill-opacity:1;fill-rule:nonZero;}
.st8{stroke:none;stroke-width:1;stroke-linecap:butt;stroke-linejoin:miter;fill:#000000;fill-opacity:0.2;fill-rule:nonZero;}
.st9{stroke:none;stroke-width:1;stroke-linecap:butt;stroke-linejoin:miter;fill:#3f3d56;fill-opacity:1;fill-rule:nonZero;}
.st10{stroke:none;stroke-width:1;stroke-linecap:butt;stroke-linejoin:miter;fill:#000000;fill-opacity:0.1;fill-rule:nonZero;}
.st11{stroke:none;stroke-width:1;stroke-linecap:butt;stroke-linejoin:miter;fill:#3f3d56;fill-opacity:1;fill-rule:nonZero;}
.st12{stroke:none;stroke-width:1;stroke-linecap:butt;stroke-linejoin:miter;fill:#3f3d56;fill-opacity:1;fill-rule:nonZero;}
.st13{stroke:#2f2e41;stroke-opacity:1;stroke-width:2;stroke-linecap:butt;stroke-linejoin:miter;fill:none;}
.st14{stroke:#2f2e41;stroke-opacity:1;stroke-width:2;stroke-linecap:butt;stroke-linejoin:miter;fill:none;}
.st15{stroke:#2f2e41;stroke-opacity:1;stroke-width:2;stroke-linecap:butt;stroke-linejoin:miter;fill:none;}
.st16{stroke:none;stroke-width:1;stroke-linecap:butt;stroke-linejoin:miter;fill:#2f2e41;fill-opacity:1;fill-rule:nonZero;}
.st17{stroke:none;stroke-width:1;stroke-linecap:butt;stroke-linejoin:miter;fill:#000000;fill-opacity:0.1;fill-rule:nonZero;}
.st18{stroke:none;stroke-width:1;stroke-linecap:butt;stroke-linejoin:miter;fill:#2f2e41;fill-opacity:1;fill-rule:nonZero;}
.st19{stroke:none;stroke-width:1;stroke-linecap:butt;stroke-linejoin:miter;fill:#3f3d56;fill-opacity:1;fill-rule:nonZero;}
.st20{stroke:none;stroke-width:1;stroke-linecap:butt;stroke-linejoin:miter;fill:#f2f2f2;fill-opacity:1;fill-rule:nonZero;}
.st21{stroke:none;stroke-width:1;stroke-linecap:butt;stroke-linejoin:miter;fill:#2f2e41;fill-opacity:1;fill-rule:nonZero;}
.st22{stroke:none;stroke-width:1;stroke-linecap:butt;stroke-linejoin:miter;fill:#2f2e41;fill-opacity:1;fill-rule:nonZero;}
.st23{stroke:none;stroke-width:1;stroke-linecap:butt;stroke-linejoin:miter;fill:#2f2e41;fill-opacity:1;fill-rule:nonZero;}
.st24{stroke:none;stroke-width:1;stroke-linecap:butt;stroke-linejoin:miter;fill:#000000;fill-opacity:0.1;fill-rule:nonZero;}
.st25{stroke:none;stroke-width:1;stroke-linecap:butt;stroke-linejoin:miter;fill:#f2f2f2;fill-opacity:1;fill-rule:nonZero;}
.st26{stroke:none;stroke-width:1;stroke-linecap:butt;stroke-linejoin:miter;fill:#f2f2f2;fill-opacity:1;fill-rule:nonZero;}
.st27{stroke:none;stroke-width:1;stroke-linecap:butt;stroke-linejoin:miter;fill:#000000;fill-opacity:0.1;fill-rule:nonZero;}
.st28{stroke:none;stroke-width:1;stroke-linecap:butt;stroke-linejoin:miter;fill:#2f2e41;fill-opacity:1;fill-rule:nonZero;}
.st29{stroke:none;stroke-width:1;stroke-linecap:butt;stroke-linejoin:miter;fill:#3f3d56;fill-opacity:1;fill-rule:nonZero;}
.st30{stroke:none;stroke-width:1;stroke-linecap:butt;stroke-linejoin:miter;fill:#3f3d56;fill-opacity:1;fill-rule:nonZero;}
.st31{stroke:none;stroke-width:1;stroke-linecap:butt;stroke-linejoin:miter;fill:#3f3d56;fill-opacity:1;fill-rule:nonZero;}
.st32{stroke:none;stroke-width:1;stroke-linecap:butt;stroke-linejoin:miter;fill:#42b983;fill-opacity:0.4;fill-rule:nonZero;}
.st33{stroke:none;stroke-width:1;stroke-linecap:butt;stroke-linejoin:miter;fill:#42b983;fill-opacity:0.8;fill-rule:nonZero;}
.st34{stroke:none;stroke-width:1;stroke-linecap:butt;stroke-linejoin:miter;fill:#42b983;fill-opacity:1;fill-rule:nonZero;}
.st35{stroke:none;stroke-width:1;stroke-linecap:butt;stroke-linejoin:miter;fill:#42b983;fill-opacity:0.4;fill-rule:nonZero;}
.st36{stroke:none;stroke-width:1;stroke-linecap:butt;stroke-linejoin:miter;fill:#42b983;fill-opacity:0.8;fill-rule:nonZero;}
.st37{stroke:none;stroke-width:1;stroke-linecap:butt;stroke-linejoin:miter;fill:#42b983;fill-opacity:1;fill-rule:nonZero;}
.st38{stroke:none;stroke-width:1;stroke-linecap:butt;stroke-linejoin:miter;fill:#42b983;fill-opacity:0.4;fill-rule:nonZero;}
.st39{stroke:none;stroke-width:1;stroke-linecap:butt;stroke-linejoin:miter;fill:#42b983;fill-opacity:0.8;fill-rule:nonZero;}
.st40{stroke:none;stroke-width:1;stroke-linecap:butt;stroke-linejoin:miter;fill:#42b983;fill-opacity:1;fill-rule:nonZero;}
.st41{stroke:none;stroke-width:1;stroke-linecap:butt;stroke-linejoin:miter;fill:#2f2e41;fill-opacity:1;fill-rule:nonZero;}
.st42{stroke:none;stroke-width:1;stroke-linecap:butt;stroke-linejoin:miter;fill:#2f2e41;fill-opacity:1;fill-rule:nonZero;}
.st43{stroke:none;stroke-width:1;stroke-linecap:butt;stroke-linejoin:miter;fill:#2f2e41;fill-opacity:1;fill-rule:nonZero;}
.st44{stroke:none;stroke-width:1;stroke-linecap:butt;stroke-linejoin:miter;fill:#2f2e41;fill-opacity:1;fill-rule:nonZero;}
.st45{stroke:none;stroke-width:1;stroke-linecap:butt;stroke-linejoin:miter;fill:#2f2e41;fill-opacity:1;fill-rule:nonZero;}
.st46{stroke:none;stroke-width:1;stroke-linecap:butt;stroke-linejoin:miter;fill:#ffffff;fill-opacity:1;fill-rule:nonZero;}
.st47{stroke:none;stroke-width:1;stroke-linecap:butt;stroke-linejoin:miter;fill:#3f3d56;fill-opacity:1;fill-rule:nonZero;}
.st48{stroke:none;stroke-width:1;stroke-linecap:butt;stroke-linejoin:miter;fill:#42b983;fill-opacity:1;fill-rule:nonZero;}
.st49{stroke:none;stroke-width:1;stroke-linecap:butt;stroke-linejoin:miter;fill:#2f2e41;fill-opacity:1;fill-rule:nonZero;}
.st50{stroke:none;stroke-width:1;stroke-linecap:butt;stroke-linejoin:miter;fill:#2f2e41;fill-opacity:1;fill-rule:nonZero;}
.st51{stroke:none;stroke-width:1;stroke-linecap:butt;stroke-linejoin:miter;fill:#db380e;fill-opacity:1;fill-rule:nonZero;}
.st52{stroke:none;stroke-width:1;stroke-linecap:butt;stroke-linejoin:miter;fill:#db380e;fill-opacity:1;fill-rule:nonZero;}
.st53{stroke:none;stroke-width:1;stroke-linecap:butt;stroke-linejoin:miter;fill:#40be73;fill-opacity:1;fill-rule:nonzero;}
.st54{stroke:none;stroke-width:1;stroke-linecap:butt;stroke-linejoin:miter;fill:#40be73;fill-opacity:1;fill-rule:nonZero;}
.st55{stroke:none;stroke-width:1;stroke-linecap:butt;stroke-linejoin:miter;fill:#40be73;fill-opacity:1;fill-rule:nonZero;}
.st56{stroke:none;stroke-width:1;stroke-linecap:butt;stroke-linejoin:miter;fill:#ffffff;fill-opacity:1;fill-rule:nonZero;}</style>
  <defs/>
  <path class="st2" id="圆13" d="M 292.60911 0 C 410.2447499999999 0 505.60911 95.36436 505.60911 213 C 505.60911 330.63563999999997 410.2447499999999 426 292.60911 426 C 174.97347 426 79.60910999999999 330.63563999999997 79.60910999999999 213 C 79.60910999999999 95.36436 174.97347 0 292.60911 0  Z "/>
  <path class="st3" id="路径93" d="M 0.04088999999999743 51.14237 C 0.04088999999999743 128.64026 48.65899 191.35055999999997 108.74161999999998 191.35055999999997 "/>
  <path class="st4" id="路径94" d="M 108.74162 191.35055999999997 C 108.74162 112.98190999999996 162.99662 49.56699999999998 230.04534000000004 49.56699999999998 "/>
  <path class="st5" id="路径95" d="M 39.42521 58.16767999999999 C 39.42521 131.78244 70.42805999999999 191.35055999999997 108.74162 191.35055999999997 "/>
  <path class="st6" id="路径96" d="M 108.74162 191.35055999999997 C 108.74162 91.21283999999996 171.45192 10.182679999999976 248.94981 10.182679999999976 "/>
  <path class="st7" id="路径97" d="M 85.87378999999999 192.33905 C 85.87378999999999 192.33905 101.28934 191.86426 105.9352 188.55604999999997 C 110.58106 185.2478399999999 129.6482 181.29754999999992 130.80073000000002 186.60326999999995 C 131.95326000000003 191.90898999999996 153.96744 212.99147999999997 136.56336000000002 213.1318699999999 C 119.15928000000002 213.2722599999999 96.12401000000004 210.42086999999992 91.48709000000002 207.59637999999995 C 86.85017000000002 204.77189 85.87378999999999 192.33905 85.87378999999999 192.33905  Z "/>
  <path class="st8" id="路径98" d="M 136.874 211.28489 C 119.46992 211.42531 96.43466999999998 208.57395 91.79774 205.74941 C 88.26648 203.59841 86.85931 195.87996 86.38847999999999 192.31898 C 86.06241 192.33298 85.87385 192.33898 85.87385 192.33898 C 85.87385 192.33898 86.85023000000001 204.77173999999997 91.48716 207.59628 C 96.12409 210.42082 119.15933 213.27216999999996 136.56342 213.13174999999995 C 141.58728000000002 213.0912299999999 143.32262 211.30381999999997 143.22733 208.65648999999996 C 142.52935 210.25599999999997 140.61329 211.25474000000003 136.874 211.28489  Z "/>
  <path class="st9" id="椭圆14" d="M 198.60911 399.06007 C 301.88547 399.06007 385.60911 410.4500354596 385.60911 424.5 C 385.60911 438.5499645404 301.88547 449.93993 198.60911 449.93993 C 95.33275 449.93993 11.609109999999989 438.5499645404 11.609109999999989 424.5 C 11.609109999999989 410.4500354596 95.33275 399.06007 198.60911 399.06007  Z "/>
  <path class="st10" id="椭圆15" d="M 198.60911 403.14134 C 285.31707 403.14134 355.60911 412.7040392552 355.60911 424.5 C 355.60911 436.2959607448 285.31707 445.85866 198.60911 445.85866 C 111.90115 445.85866 41.60910999999999 436.2959607448 41.60910999999999 424.5 C 41.60910999999999 412.7040392552 111.90115 403.14134 198.60911 403.14134  Z "/>
  <path class="st11" id="椭圆16" d="M 836.60911 622 C 992.90435 622 1119.60911 639.23722 1119.60911 660.5 C 1119.60911 681.76278 992.90435 699 836.60911 699 C 680.31387 699 553.60911 681.76278 553.60911 660.5 C 553.60911 639.23722 680.31387 622 836.60911 622  Z "/>
  <path class="st12" id="椭圆17" d="M 310.60911 622.37279 C 404.49671 622.37279 480.60911 632.7273044612 480.60911 645.5 C 480.60911 658.2726955388 404.49671 668.62721 310.60911 668.62721 C 216.72151 668.62721 140.60911 658.2726955388 140.60911 645.5 C 140.60911 632.7273044612 216.72151 622.37279 310.60911 622.37279  Z "/>
  <path class="st13" id="路径99" d="M 462.65 626 C 552.65 649 725.65 596 744.65 536 "/>
  <path class="st14" id="路径100" d="M 309.65 259 C 309.65 259 439.65 223 447.65 339 C 455.65 455 340.65 488 430.65 511 "/>
  <path class="st15" id="路径101" d="M 184.05233 537.28332 C 184.05233 537.28332 223.12463 526.46332 225.52908 561.32781 C 227.93353 596.1923 193.36957 606.11068 220.41962 613.02347 "/>
  <path class="st16" id="路径102" d="M 778.74554 563.23988 C 778.74554 563.23988 770.8679999999999 613.53505 770.8679999999999 613.53505 C 770.8679999999999 613.53505 732.0861799999999 634.13789 759.35465 634.7438599999999 C 786.6231200000001 635.3498299999999 915.08789 634.7438599999999 915.08789 634.7438599999999 C 915.08789 634.7438599999999 939.9325 634.7438599999999 900.54471 612.9290799999999 C 900.54471 612.9290799999999 892.66715 560.2100799999998 892.66715 560.2100799999998 C 892.66715 560.2100799999998 778.74554 563.23988 778.74554 563.23988  Z "/>
  <path class="st17" id="路径103" d="M 753.86906 634.19812 C 760.06206 628.68773 770.86796 622.9461200000001 770.86796 622.9461200000001 C 770.86796 622.9461200000001 778.74552 572.65092 778.74552 572.65092 C 778.74552 572.65092 892.6671200000001 572.75809 892.6671200000001 572.75809 C 892.6671200000001 572.75809 900.5446800000001 622.34009 900.5446800000001 622.34009 C 909.72968 627.4272000000001 915.41958 631.32709 918.7483 634.31827 C 923.80712 633.16405 929.33546 628.87474 900.5446800000001 612.9290599999999 C 900.5446800000001 612.9290599999999 892.6671200000001 560.2100599999999 892.6671200000001 560.2100599999999 C 892.6671200000001 560.2100599999999 778.74552 563.2398899999998 778.74552 563.2398899999998 C 778.74552 563.2398899999998 770.8679999999999 613.53506 770.8679999999999 613.53506 C 770.8679999999999 613.53506 738.27985 630.84968 753.86906 634.19812  Z "/>
  <path class="st18" id="矩形26" d="M 596.4785899999999 212.68859 C 596.4785899999999 212.68859 1073.64037 212.68859 1073.64037 212.68859 C 1083.6066381504002 212.68859 1091.68605 220.7680018496 1091.68605 230.73427 C 1091.68605 230.73427 1091.68605 552.1628000000001 1091.68605 552.1628000000001 C 1091.68605 562.1290681504 1083.6066381504002 570.20848 1073.64037 570.20848 C 1073.64037 570.20848 596.4785899999999 570.20848 596.4785899999999 570.20848 C 586.5123218496 570.20848 578.43291 562.1290681504 578.43291 552.1628000000001 C 578.43291 552.1628000000001 578.43291 230.73427 578.43291 230.73427 C 578.43291 220.7680018496 586.5123218496 212.68859 596.4785899999999 212.68859  Z "/>
  <path class="st19" id="矩形27" d="M 595.7029400000002 231.77652 C 595.7029400000002 231.77652 1074.4160200000003 231.77652 1074.4160200000003 231.77652 C 1074.4160200000003 231.77652 1074.4160200000003 499.61346000000026 1074.4160200000003 499.61346000000026 C 1074.4160200000003 499.61346000000026 595.7029400000002 499.61346000000026 595.7029400000002 499.61346000000026 C 595.7029400000002 499.61346000000026 595.7029400000002 231.77652 595.7029400000002 231.77652  Z "/>
  <path class="st20" id="圆14" d="M 835.05948 220.26316 C 836.7327945124 220.26316 838.08931 221.6196754876 838.08931 223.29299 C 838.08931 224.9663045124 836.7327945124 226.32282 835.05948 226.32282 C 833.3861654876 226.32282 832.0296500000001 224.9663045124 832.0296500000001 223.29299 C 832.0296500000001 221.6196754876 833.3861654876 220.26316 835.05948 220.26316  Z "/>
  <path class="st21" id="路径104" d="M 1091.72694 520.82226 C 1091.72694 520.82226 1091.72694 552.1628 1091.72694 552.1628 C 1091.7273455899824 555.3864854353108 1090.9216855623483 558.394258702344 1089.3099599170978 561.1861198010998 C 1087.6982342718472 563.9779808998558 1085.4964408998435 566.1797742718577 1082.704579801086 567.7914999171056 C 1079.912718702329 569.4032255623537 1076.9049454352976 570.2088855899851 1073.681259999992 570.2084799999999 C 1073.681259999992 570.2084799999999 596.51949 570.2084799999999 596.51949 570.2084799999999 C 593.2958033738576 570.2088873767618 590.2880286979196 569.4032284605095 587.4961659721861 567.7915032512428 C 584.7043032464526 566.1797780419761 582.5025085053984 563.9779845210442 580.8907817490237 561.1861226884472 C 579.2790549926491 558.3942608558502 578.4733944096412 555.3864866263677 578.4738000000001 552.1628 C 578.4738000000001 552.1628 578.4738000000001 520.82226 578.4738000000001 520.82226 C 578.4738000000001 520.82226 1091.72694 520.82226 1091.72694 520.82226  Z "/>
  <path class="st22" id="多边形47" d="M 968.978 667.466 C 968.978 667.466 968.978 673.526 968.978 673.526 C 968.978 673.526 642.968 673.526 642.968 673.526 C 642.968 673.526 642.968 668.678 642.968 668.678 C 642.968 668.678 643.417 667.466 643.417 667.466 C 643.417 667.466 651.452 645.651 651.452 645.651 C 651.452 645.651 962.312 645.651 962.312 645.651 C 962.312 645.651 968.978 667.466 968.978 667.466 C 968.978 667.466 968.978 667.466 968.978 667.466  Z "/>
  <path class="st23" id="路径105" d="M 1094.478 661.53359 C 1093.88417 664.07259 1091.64209 666.75102 1086.57622 669.28391 C 1068.39722 678.3734 1031.43332 666.86005 1031.43332 666.86005 C 1031.43332 666.86005 1002.95292 662.01232 1002.95292 649.28705 C 1003.7534220160436 648.738892552521 1004.585615349377 648.2440292191876 1005.4495 647.80246 C 1013.09244 643.75895 1038.4339900000002 633.78124 1083.3672 648.22494 C 1086.742556702317 649.2844328787229 1089.589576702317 651.1501495453896 1091.9082600000002 653.82209 C 1093.72908 655.95353 1095.15669 658.65715 1094.478 661.53359  Z "/>
  <path class="st24" id="路径106" d="M 1094.478 661.53359 C 1072.227 670.05959 1052.3937 670.69579 1032.0392900000002 656.55859 C 1021.77422 649.43242 1012.4484 647.66904 1005.4495 647.80241 C 1013.09244 643.7589 1038.4339900000002 633.78119 1083.3672 648.22489 C 1086.742556702317 649.2843828787229 1089.589576702317 651.1500995453896 1091.9082600000002 653.82204 C 1093.72908 655.95353 1095.15669 658.65715 1094.478 661.53359  Z "/>
  <path class="st25" id="椭圆18" d="M 1066.53846 651.71091 C 1070.8890788368 651.71091 1074.41602 652.7961205992 1074.41602 654.13477 C 1074.41602 655.4734194008 1070.8890788368 656.55863 1066.53846 656.55863 C 1062.1878411632 656.55863 1058.6609 655.4734194008 1058.6609 654.13477 C 1058.6609 652.7961205992 1062.1878411632 651.71091 1066.53846 651.71091  Z "/>
  <path class="st26" id="圆15" d="M 835.05948 534.1535100000001 C 841.418072938 534.1535100000001 846.57283 539.308267062 846.57283 545.66686 C 846.57283 552.0254529380001 841.418072938 557.18021 835.05948 557.18021 C 828.700887062 557.18021 823.5461300000001 552.0254529380001 823.5461300000001 545.66686 C 823.5461300000001 539.308267062 828.700887062 534.1535100000001 835.05948 534.1535100000001  Z "/>
  <path class="st27" id="多边形48" d="M 968.978 667.466 C 968.978 667.466 968.978 673.526 968.978 673.526 C 968.978 673.526 642.968 673.526 642.968 673.526 C 642.968 673.526 642.968 668.678 642.968 668.678 C 642.968 668.678 643.417 667.466 643.417 667.466 C 643.417 667.466 968.978 667.466 968.978 667.466 C 968.978 667.466 968.978 667.466 968.978 667.466  Z "/>
  <path class="st28" id="矩形28" d="M 108.60911 159 C 108.60911 159 316.60911 159 316.60911 159 C 316.60911 159 316.60911 401 316.60911 401 C 316.60911 401 108.60911 401 108.60911 401 C 108.60911 401 108.60911 159 108.60911 159  Z "/>
  <path class="st29" id="矩形29" d="M 87.60911 135 C 87.60911 135 337.60911 135 337.60911 135 C 337.60911 135 337.60911 221 337.60911 221 C 337.60911 221 87.60911 221 87.60911 221 C 87.60911 221 87.60911 135 87.60911 135  Z "/>
  <path class="st30" id="矩形30" d="M 87.60911 237 C 87.60911 237 337.60911 237 337.60911 237 C 337.60911 237 337.60911 323 337.60911 323 C 337.60911 323 87.60911 323 87.60911 323 C 87.60911 323 87.60911 237 87.60911 237  Z "/>
  <path class="st31" id="矩形31" d="M 87.60911 339 C 87.60911 339 337.60911 339 337.60911 339 C 337.60911 339 337.60911 425 337.60911 425 C 337.60911 425 87.60911 425 87.60911 425 C 87.60911 425 87.60911 339 87.60911 339  Z "/>
  <path class="st32" id="矩形32" d="M 271.60911 150 C 271.60911 150 287.60911 150 287.60911 150 C 287.60911 150 287.60911 166 287.60911 166 C 287.60911 166 271.60911 166 271.60911 166 C 271.60911 166 271.60911 150 271.60911 150  Z "/>
  <path class="st33" id="矩形33" d="M 294.60911 150 C 294.60911 150 310.60911 150 310.60911 150 C 310.60911 150 310.60911 166 310.60911 166 C 310.60911 166 294.60911 166 294.60911 166 C 294.60911 166 294.60911 150 294.60911 150  Z "/>
  <path class="st34" id="矩形34" d="M 317.60911 150 C 317.60911 150 333.60911 150 333.60911 150 C 333.60911 150 333.60911 166 333.60911 166 C 333.60911 166 317.60911 166 317.60911 166 C 317.60911 166 317.60911 150 317.60911 150  Z "/>
  <path class="st35" id="矩形35" d="M 271.60911 251 C 271.60911 251 287.60911 251 287.60911 251 C 287.60911 251 287.60911 267 287.60911 267 C 287.60911 267 271.60911 267 271.60911 267 C 271.60911 267 271.60911 251 271.60911 251  Z "/>
  <path class="st36" id="矩形36" d="M 294.60911 251 C 294.60911 251 310.60911 251 310.60911 251 C 310.60911 251 310.60911 267 310.60911 267 C 310.60911 267 294.60911 267 294.60911 267 C 294.60911 267 294.60911 251 294.60911 251  Z "/>
  <path class="st37" id="矩形37" d="M 317.60911 251 C 317.60911 251 333.60911 251 333.60911 251 C 333.60911 251 333.60911 267 333.60911 267 C 333.60911 267 317.60911 267 317.60911 267 C 317.60911 267 317.60911 251 317.60911 251  Z "/>
  <path class="st38" id="矩形38" d="M 271.60911 352 C 271.60911 352 287.60911 352 287.60911 352 C 287.60911 352 287.60911 368 287.60911 368 C 287.60911 368 271.60911 368 271.60911 368 C 271.60911 368 271.60911 352 271.60911 352  Z "/>
  <path class="st39" id="矩形39" d="M 294.60911 352 C 294.60911 352 310.60911 352 310.60911 352 C 310.60911 352 310.60911 368 310.60911 368 C 310.60911 368 294.60911 368 294.60911 368 C 294.60911 368 294.60911 352 294.60911 352  Z "/>
  <path class="st40" id="矩形40" d="M 317.60911 352 C 317.60911 352 333.60911 352 333.60911 352 C 333.60911 352 333.60911 368 333.60911 368 C 333.60911 368 317.60911 368 317.60911 368 C 317.60911 368 317.60911 352 317.60911 352  Z "/>
  <path class="st41" id="圆16" d="M 316.60911 459 C 360.23922999999996 459 395.60911 494.36988 395.60911 538 C 395.60911 581.63012 360.23922999999996 617 316.60911 617 C 272.97899 617 237.60911 581.63012 237.60911 538 C 237.60911 494.36988 272.97899 459 316.60911 459  Z "/>
  <path class="st42" id="矩形41" d="M 280.60911 600 C 280.60911 600 304.60911 600 304.60911 600 C 304.60911 600 304.60911 643 304.60911 643 C 304.60911 643 280.60911 643 280.60911 643 C 280.60911 643 280.60911 600 280.60911 600  Z "/>
  <path class="st43" id="矩形42" d="M 328.60911 600 C 328.60911 600 352.60911 600 352.60911 600 C 352.60911 600 352.60911 643 352.60911 643 C 352.60911 643 328.60911 643 328.60911 643 C 328.60911 643 328.60911 600 328.60911 600  Z "/>
  <path class="st44" id="椭圆19" d="M 300.60911 636 C 311.65470999999997 636 320.60911 639.3579 320.60911 643.5 C 320.60911 647.6421 311.65470999999997 651 300.60911 651 C 289.56351 651 280.60911 647.6421 280.60911 643.5 C 280.60911 639.3579 289.56351 636 300.60911 636  Z "/>
  <path class="st45" id="椭圆20" d="M 348.60911 635 C 359.65470999999997 635 368.60911 638.3579 368.60911 642.5 C 368.60911 646.6421 359.65470999999997 650 348.60911 650 C 337.56351 650 328.60911 646.6421 328.60911 642.5 C 328.60911 638.3579 337.56351 635 348.60911 635  Z "/>
  <path class="st46" id="圆17" d="M 318.60911 491 C 333.52067 491 345.60911 503.08844 345.60911 518 C 345.60911 532.91156 333.52067 545 318.60911 545 C 303.69755 545 291.60911 532.91156 291.60911 518 C 291.60911 503.08844 303.69755 491 318.60911 491  Z "/>
  <path class="st47" id="圆18" d="M 318.60911 509 C 323.57963 509 327.60911 513.02948 327.60911 518 C 327.60911 522.97052 323.57963 527 318.60911 527 C 313.63858999999997 527 309.60911 522.97052 309.60911 518 C 309.60911 513.02948 313.63858999999997 509 318.60911 509  Z "/>
  <path class="st48" id="路径107" d="M 240.01733 464.53228 C 233.63843999999995 435.9647 254.02917999999997 407.09836 285.56132999999994 400.05751 C 317.09347999999994 393.01665999999994 347.82642999999996 410.46751 354.20532999999995 439.03511 C 360.58422999999993 467.6027100000001 339.6867199999999 478.1389 308.15457999999995 485.17975 C 276.62244 492.2206 246.39622 493.09986 240.01733 464.53228  Z "/>
  <path class="st49" id="椭圆21" d="M 380.9815955919182 499.4132573825571 C 401.0369114373136 490.8294850646929 419.4798065828573 488.9748298167795 422.1745178324786 495.27081289065745 C 424.8692290820999 501.56679596453546 410.79540803187194 513.6294527400676 390.74009218647655 522.2132250579318 C 370.68477634108126 530.7969973757962 352.24188119553753 532.6516526237094 349.54716994591627 526.3556695498314 C 346.8524586962949 520.0596864759535 360.9262797465228 507.9970297004215 380.9815955919182 499.4132573825571  Z "/>
  <path class="st50" id="椭圆22" d="M 232.9746324998295 552.4228551489566 C 253.0299483452249 543.8390828310922 271.4728434907685 541.984427583179 274.1675547403899 548.2804106570568 C 276.8622659900113 554.5763937309348 262.7884449397831 566.6390505064669 242.73312909438783 575.2228228243313 C 222.67781324899255 583.8065951421955 204.23491810344888 585.6612503901089 201.5402068538275 579.3652673162309 C 198.84549560420615 573.069284242353 212.91931665443423 561.0066274668209 232.9746324998295 552.4228551489566  Z "/>
  <g id="图层5">
    <g id="图层4">
      <path class="st51" id="路径109" d="M 822.9554946468261 269.7501289006101 C 817.4943708128047 273.97153446112145 811.3049585602737 278.756166248026 807.9885341893005 286.67203104535486 C 802.2282465023418 300.48248912525224 819.7754945422157 315.54675975692845 820.5254814568495 316.181277107183 C 820.7054634831188 316.33364689607924 820.9090231938661 316.4072655337846 821.1361605890913 316.4021330202989 C 821.363297984317 316.39700050681313 821.5639325661565 316.31424848684185 821.7380643346107 316.153876960385 C 821.9121974653447 315.99360839257884 822.0215480566799 315.7910866650371 822.066116108617 315.54631177775997 C 822.1106841605546 315.3015368904829 822.0806642652001 315.06836171581926 821.9760564225542 314.84678625377 C 821.9125764763555 314.7123223754274 815.6139786424926 301.26593162348405 815.8480466608014 291.6195417011437 C 815.9309169219179 288.259719957995 820.2090049752543 284.44830251684465 824.7380121085671 280.41311672389656 C 828.8861394492678 276.7171352214639 833.5882737925192 272.52820389961255 836.3393801727611 267.6278824630548 C 842.3789797153298 256.84134007795734 835.6662616479264 246.23492852481814 835.5977033106487 246.12887963701718 C 835.4644942335158 245.92321107918195 835.2871770732302 245.78680140645892 835.0657518297915 245.71965061884742 C 834.8443265863534 245.6524998312358 834.6284526539603 245.66966794348815 834.4181300326115 245.77115495560463 C 834.2079036033577 245.87296277088814 834.0504874674655 246.03626415237358 833.945881624938 246.26105910006112 C 833.8412757824101 246.48585404774815 833.8129456969699 246.7217159548332 833.8608913686187 246.96864482131627 C 833.8745106534241 247.03892122829066 835.1798896178359 254.0528630574392 831.5474505630975 261.27915637312543 C 830.0511700776813 264.2652698996118 826.7631385977634 266.8068915074449 822.9554946468256 269.7501289006101 C 822.9554946468256 269.7501289006101 822.9554946468261 269.7501289006101 822.9554946468261 269.7501289006101  Z "/>
      <path class="st52" id="路径110" d="M 845.9636356795149 274.5065992810529 C 846.1560371461162 274.34704101054535 846.2773660410157 274.13771991898733 846.3276223642149 273.87863600637877 C 846.3778786874137 273.6195520937702 846.3447759658476 273.37404520097164 846.228314199517 273.14211532798294 C 846.1118524331858 272.9101854549947 845.9405037478634 272.74853392725817 845.7142681435496 272.6571607447754 C 845.4880325392355 272.5657875622922 845.2622192284159 272.5670312901204 845.0368282110908 272.6608919282594 C 844.1090973778488 273.0485538658291 822.3188483397829 282.280135414738 822.3188482243627 293.4342970808922 C 822.3188482243627 301.1233492489045 825.3072542843547 305.1851740558427 827.4893493300135 308.1514985098961 C 828.3452901645354 309.3149918713322 829.0841969321926 310.3196656120029 829.327729209045 311.17744389218313 C 830.0133128126621 313.64929638805796 828.3891490700307 318.1170500662389 827.7061046042429 319.6301494859948 C 827.6074566452642 319.8478776198725 827.5799352772416 320.0759724022158 827.6235405001737 320.3144338330246 C 827.6671457231052 320.5528952638332 827.7727106465101 320.75159288456166 827.9402352703869 320.9105266952092 C 828.1077598942636 321.0694605058568 828.3020264218222 321.15521870989426 828.5230348530615 321.16780130732195 C 828.7440432843009 321.18038390474976 828.9453322105022 321.1171457240754 829.126901631666 320.978086765299 C 829.5015488271763 320.69190691868465 838.2834830150555 313.8677368102019 836.7084872947833 305.64590309382584 C 836.121701533713 302.5207588921511 834.7244497320487 300.2374095622628 833.4915534053921 298.2224806940433 C 831.5816143688448 295.1006347345352 830.2021368782473 292.8457003951885 832.294898224482 288.6808711048244 C 834.7468408672065 283.8229185065708 845.8512184367416 274.5989481588826 845.9636356795149 274.5065992810529 C 845.9636356795149 274.5065992810529 845.9636356795149 274.5065992810529 845.9636356795149 274.5065992810529  Z "/>
      <path class="st53" id="复合路径6" d="M 789.2427843543019 321.3454522085643 C 788.8692913648143 322.57465530698414 789.0456502361955 323.79396380576014 789.7522399277425 324.8727196174432 C 792.114387188634 328.47711350170925 800.4815086193582 330.4615976919001 813.3132338723794 330.46159781875537 C 813.3132338723794 330.46159781875537 813.314849645391 330.46159781875537 813.314849645391 330.46159781875537 C 815.0535082016363 330.46159781875537 816.8891181016345 330.42404936137723 818.7692793153215 330.34996729036493 C 839.2848505766545 329.54293018251747 846.8941366072121 322.5183326209169 847.2080739509777 322.21972131901066 C 847.3785645227817 322.05692448761954 847.4843285224413 321.85348072165175 847.5253659499576 321.6093900211074 C 847.5664033774739 321.36529932056305 847.5337721224682 321.13374937577345 847.4274721849392 320.9147401867387 C 847.3211722474102 320.695730997704 847.1643665260148 320.5369849598294 846.9570550207529 320.4385020731148 C 846.7497435154903 320.34001918640035 846.5370996808164 320.32325900366743 846.3191235167319 320.3882215249157 C 839.0937182144451 322.55638862702244 825.6020321544069 323.32613098842756 816.243930785445 323.32613098842756 C 805.7725061790995 323.32613098842756 800.4397272847032 322.497021409725 799.1341174790871 321.88483011440564 C 799.8040042270584 320.87381372719375 803.9359730297041 319.0684455252175 809.0561517915526 317.9615285607844 C 809.3004985527296 317.90833096606366 809.4969570670742 317.7718593937334 809.6455273345855 317.55211384379425 C 809.7940976020972 317.3323682938544 809.856305769185 317.0862542175597 809.8321518358489 316.81377161490997 C 809.8079979025118 316.5412890122599 809.7037367871171 316.31300015615193 809.5193684896635 316.12890504658617 C 809.3350001922098 315.9448099370203 809.1182688475237 315.8525819639077 808.8691744556045 315.85222112724796 C 805.8678416344204 315.85222112724796 790.8161641861425 316.11708963581486 789.2427843543019 321.3454522085643 C 789.2427843543019 321.3454522085643 789.2427843543019 321.3454522085643 789.2427843543019 321.3454522085643  Z M 857.8920986898709 314.1102792638326 C 853.6606395210645 314.1102792638326 849.6480130819075 316.4413252348238 849.4790408982301 316.54001663233964 C 849.2835685767374 316.65543209537907 849.1409707779104 316.82466529484117 849.0512475017488 317.04771623072634 C 848.9615242255863 317.27076716661156 848.9436032384567 317.5005816498282 848.9974845403599 317.7371596803771 C 849.051365842262 317.97373771092583 849.1656827874656 318.16717146241643 849.3404353759706 318.3174609348495 C 849.515187964476 318.4677504072824 849.713510888764 318.5431909623147 849.9354041488348 318.5437825999463 C 850.0251994152469 318.5437825999463 858.9615630217596 318.62420719064505 859.7708748563314 324.2359188687652 C 860.4878522866617 329.0771269258168 851.315574047626 336.921193177412 847.7207611858614 339.53537446378647 C 847.4888682666456 339.5894761619574 847.3004281118501 339.71959399155173 847.1554407214733 339.925727952569 C 847.010453331097 340.1318619135865 846.9433447163843 340.3650672664801 846.9541148773335 340.6253440112499 C 846.9648850382831 340.8856207560196 847.0509766926311 341.11116841388946 847.212389840379 341.3019869848589 C 847.3738029881262 341.4928055558284 847.5722114629431 341.60358680824675 847.8076152648296 341.6343307421138 C 848.043019066716 341.66507467598126 848.2595235836698 341.6084814081131 848.4571288156899 341.46455093850955 C 849.3102995557576 341.26386990131107 869.326110343399 336.416065486782 867.2098036559844 323.6077440381962 C 865.9187364999917 315.75809627286736 861.4298949283232 314.1102792638326 857.8920986898709 314.1102792638326  Z M 844.1654213621275 337.9679819185955 C 844.2001784868097 337.76278552195254 844.1816768633246 337.5635638219925 844.1099164916716 337.3703168187153 C 844.0381561200195 337.17706981543813 843.9245424744862 337.02051186659025 843.7690755550739 336.90064297217185 C 843.7690755550739 336.90064297217185 838.969759142286 333.2059300244186 838.969759142286 333.2059300244186 C 838.852673604899 333.11611554150295 838.7238361194778 333.0575078622851 838.5832466860231 333.0301069867647 C 838.4426572525674 333.0027061112444 838.3033399764223 333.00905043708406 838.1652948575893 333.0491399642843 C 838.1152033549916 333.0630938120468 833.0963618043612 334.513274315114 825.8097848525006 335.4025121170665 C 822.9178683384316 335.7589683706554 819.6787741550884 335.947217825706 816.4419882683694 335.94721769885064 C 809.1572580461453 335.94721769885064 804.3941830099453 335.0064777186131 803.7005200795898 334.3163989419538 C 803.6086472423373 334.12256797316894 803.6377326570051 334.03453218124935 803.6541220362651 333.98556698546747 C 803.7801586792644 333.6004420304014 804.4555855007236 333.1427573967933 804.890942547978 332.9616115942364 C 805.1324904638121 332.8645990467263 805.3106288859912 332.6896113663538 805.4253578145142 332.43664855311886 C 805.5400867430384 332.1836857398837 805.5599932098903 331.9220094252116 805.4850772150719 331.65161960910245 C 805.4101612202534 331.38122979299317 805.2609348855052 331.1761596487228 805.0373982108263 331.0364091762913 C 804.8138615361484 330.89665870385966 804.577219228167 330.8604918108721 804.3274712868836 330.92790849732785 C 799.5131505420628 332.2048082368501 797.1590824924886 333.9903873663938 797.3303630882115 336.2349198110803 C 797.6346052168078 340.2145440507689 806.0213476882356 342.257126903578 813.1114829301825 342.79701210443574 C 814.1310866006777 342.87363115795154 815.2337913734947 342.91244804315346 816.3882034219198 342.9124481700087 C 816.3882034219198 342.9124481700087 816.3900501515564 342.9124481700087 816.3900501515564 342.9124481700087 C 828.1797804835048 342.9124481700087 843.294014513164 338.8468178258878 843.44498142915 338.8054637044713 C 843.629532636475 338.75588878485803 843.7870692449761 338.65523809152046 843.917591254653 338.5035116244594 C 844.0481132643306 338.35178515739807 844.130723300155 338.1732752554433 844.1654213621275 337.9679819185955 C 844.1654213621275 337.9679819185955 844.1654213621275 337.9679819185955 844.1654213621275 337.9679819185955  Z M 807.9829941158127 346.50872343118215 C 808.1646704285263 346.37873693018196 808.2922028139814 346.2016490941602 808.3655912721779 345.9774599231188 C 808.4389797303737 345.7532707520768 808.4433317727313 345.5274742480861 808.3786473992525 345.3000704111471 C 808.2500716184239 344.84517647097874 807.8629592287106 344.54631145813596 807.4280637484444 344.55265410467786 C 806.7828764322547 344.57142833336655 801.1149232649575 344.8525339612637 800.7181157754956 348.81871190191686 C 800.5980808883928 350.0040238964165 800.9069398410799 351.08709266715414 801.6366131913976 352.0372195714534 C 803.6716655061264 354.68793447146305 809.1651065316784 356.2634455128915 818.4278725607392 356.853564591066 C 819.5236522128416 356.92587068552746 820.636744609021 356.96215058822605 821.7366792873831 356.9621504613706 C 833.5127903345268 356.9621504613706 841.4438620789629 352.90971270534897 841.7760354162042 352.73719307461175 C 841.994972875426 352.6235052780447 842.1529289543481 352.4447321559884 842.2499036529705 352.2008737084443 C 842.3468783515929 351.9570152609009 842.3589707551555 351.7081741749729 842.2861808636587 351.4543504506613 C 842.213390972161 351.20052672634955 842.0736589804883 351.00427914738935 841.8669848886393 350.86560771378004 C 841.8669848886393 350.86560771378004 835.8017625494706 346.7961717056206 835.8017625494706 346.7961717056206 C 835.5835436960244 346.65053322971164 835.3493987691218 346.6059656478666 835.0993277687639 346.6624689600856 C 835.0610089367563 346.67134858913073 831.209967878152 347.54916965267944 825.3982037567891 348.41633498377695 C 824.2984999196316 348.58073611827626 822.921330841079 348.66420524020555 821.3054771509692 348.66420524020555 C 815.4999456267086 348.66420524020555 809.042532506747 347.62172945807674 807.8040959911812 346.93900791799194 C 807.7860907234902 346.811647818999 807.8089435410567 346.64978366700245 807.9829941158127 346.50872343118215 C 807.9829941158127 346.50872343118215 807.9829941158127 346.50872343118215 807.9829941158127 346.50872343118215  Z "/>
      <path class="st54" id="路径115" d="M 816.24831665291 369.1978586326466 C 843.2224552402273 369.1727417574159 857.6998120062191 363.9004880807472 860.4887755360592 360.5827814649668 C 861.4760621304434 359.40913991980614 861.582708458524 358.29790986946324 861.4989149480095 357.57205848512154 C 861.2916240477451 355.78597180685114 859.8112711437589 354.69250126830855 859.6434532815249 354.5737670874247 C 859.2385664653241 354.28758724080996 858.6951780427618 354.3624304446299 858.3793939693599 354.7627776752832 C 858.0643025349916 355.16312490593566 858.0569157318669 355.74816976539245 858.3731613722575 356.1482632851094 C 858.5432876465374 356.38877605125316 858.6416239220969 356.7914066803292 858.1441718604501 357.33864949832736 C 857.0292328500549 358.48311492013875 845.7840451466916 361.9571041741809 827.0606864468486 363.0008485109891 C 824.4958648789426 363.1472365496077 821.80569930707 363.22182604249167 819.0654422326004 363.22233333750796 C 802.3014215482899 363.22233333750796 790.0327059893752 360.69847111462065 788.4221615315496 359.2279942441048 C 789.042880141741 358.24767624585746 793.3826016424803 356.6815522553453 797.9977106983536 355.79561269555904 C 798.2620875671877 355.75066994496814 798.4732899876316 355.6095772461401 798.6313179596864 355.37233459907634 C 798.7893459317413 355.1350919520118 798.8479141351861 354.87118611748184 798.807022570021 354.5806170954867 C 798.7661310048552 354.29004807349094 798.6377565329192 354.0579215580049 798.4218991542118 353.8842375490276 C 798.2060417755043 353.71055354005046 797.9659246508717 353.64618290473385 797.7015477803138 353.69112564307835 C 797.5713561110538 353.71066100457506 797.1295355100723 353.73958341698847 796.6180023657907 353.77408734313605 C 789.0031762617449 354.28505013158014 780.2034677628001 355.4239341665131 779.7443345331619 359.7361663392393 C 779.6049094465612 361.05010698741194 779.9601664425733 362.24303018313384 780.8006412626535 363.28119300620784 C 782.8571613477216 365.8207849265541 788.7681851094605 369.19735121090406 816.2473934027528 369.19735121090406 C 816.2473934027528 369.19735121090406 816.2483166521504 369.19785863277593 816.2483166521504 369.19785863277593 C 816.2483166521504 369.19785863277593 816.24831665291 369.1978586326466 816.24831665291 369.1978586326466  Z "/>
      <path class="st55" id="路径116" d="M 865.78692905772 361.5176862205351 C 865.5967194562019 361.42077843731136 865.3987624803686 361.3945776180469 865.1930581302192 361.4390837627417 C 864.987353780069 361.4835899074363 864.8132027366964 361.5902999299967 864.6706050000973 361.7592138304223 C 864.6311319620673 361.80614933871686 860.5755699822325 366.46697285287485 848.3818761989016 369.2039475682522 C 843.7136748201931 370.2319622076017 834.9511309472321 370.75332701756224 822.3375460156681 370.75332701756224 C 809.7004157429241 370.75332701756224 797.6754633020657 370.20684545922694 797.5556592561677 370.2012638186375 C 797.0533595292262 370.1743710937112 796.6237732812436 370.5757331681074 796.5554457851708 371.1191703220677 C 796.5212446058338 371.39074660454463 796.5745287695744 371.6397046357916 796.7152982763937 371.8660444158106 C 796.8560677832128 372.0923841958288 797.0477778136722 372.23734622066604 797.2904283677722 372.3009304903211 C 797.4155416459535 372.3334048558369 810.0175847481328 375.578297955284 827.2481254652062 375.578297955284 C 835.5122939117025 375.578297955284 843.5541670104805 374.84077612160337 851.1507570056301 373.3850139779468 C 865.3150997926733 370.65590404787076 866.3067723699436 362.9366610396212 866.3420902662926 362.60938090938123 C 866.3667718345771 362.38058654721624 866.3279757416215 362.1656314448156 866.2257019874287 361.96451560217855 C 866.1234282332352 361.76339975954176 865.977170589999 361.6144566323272 865.78692905772 361.5176862205351 C 865.78692905772 361.5176862205351 865.78692905772 361.5176862205351 865.78692905772 361.5176862205351  Z "/>
    </g>
  </g>
  <path class="st56" id="路径108" d="M 362.65 561 C 362.65 568.732 342.74138999999997 584 320.65 584 C 298.55861 584 277.65 569.732 277.65 562 C 277.65 554.268 298.55861 556 320.65 556 C 342.74138999999997 556 362.65 553.268 362.65 561  Z "/>
  <g id="文本1">
    <text transform="matrix(1.1045780181884766 0 0 1 681.088262271881 386.5375)" opacity="1" id="文本1" text-anchor="start" dominant-baseline="auto">
      <tspan x="2" y="76.85" font-family="Segoe Print" font-size="60" fill="#42b983" font-style="normal" font-weight="normal">J</tspan>
    </text>
    <text transform="matrix(1.1045780181884766 0 0 1 720.4112397193909 386.5375)" opacity="1" id="文本2" text-anchor="start" dominant-baseline="auto">
      <tspan x="2" y="76.85" font-family="Segoe Print" font-size="60" fill="#42b983" font-style="normal" font-weight="normal">a</tspan>
    </text>
    <text transform="matrix(1.1045780181884766 0 0 1 759.1819281578064 386.5375)" opacity="1" id="文本3" text-anchor="start" dominant-baseline="auto">
      <tspan x="2" y="76.85" font-family="Segoe Print" font-size="60" fill="#42b983" font-style="normal" font-weight="normal">v</tspan>
    </text>
    <text transform="matrix(1.1045780181884766 0 0 1 795.1911715507507 386.5375)" opacity="1" id="文本4" text-anchor="start" dominant-baseline="auto">
      <tspan x="2" y="76.85" font-family="Segoe Print" font-size="60" fill="#42b983" font-style="normal" font-weight="normal">a</tspan>
    </text>
    <text transform="matrix(1.1045780181884766 0 0 1 833.9618599891662 386.5375)" opacity="1" id="文本5" text-anchor="start" dominant-baseline="auto">
      <tspan x="2" y="76.85" font-family="Segoe Print" font-size="60" fill="#42b983" font-style="normal" font-weight="normal">P</tspan>
    </text>
    <text transform="matrix(1.1045780181884766 0 0 1 880.6302812576293 386.5375)" opacity="1" id="文本6" text-anchor="start" dominant-baseline="auto">
      <tspan x="2" y="76.85" font-family="Segoe Print" font-size="60" fill="#42b983" font-style="normal" font-weight="normal">a</tspan>
    </text>
    <text transform="matrix(1.1045780181884766 0 0 1 919.4009696960449 386.5375)" opacity="1" id="文本7" text-anchor="start" dominant-baseline="auto">
      <tspan x="2" y="76.85" font-family="Segoe Print" font-size="60" fill="#42b983" font-style="normal" font-weight="normal">r</tspan>
    </text>
    <text transform="matrix(1.1045780181884766 0 0 1 952.9801414489746 386.5375)" opacity="1" id="文本8" text-anchor="start" dominant-baseline="auto">
      <tspan x="2" y="76.85" font-family="Segoe Print" font-size="60" fill="#42b983" font-style="normal" font-weight="normal">k</tspan>
    </text>
  </g>
</svg>